<svg xmlns="http://www.w3.org/2000/svg" viewBox="0 0 312.09 532.23"><g id="Layer_2" data-name="Layer 2"><g id="Layer_1-2" data-name="Layer 1"><path d="M258.18.22Q159.62-.22,61,.22C23.85.39,7.59,16.35,7.4,53.12q-.51,100,0,199.94c.2,37.44,15.32,52.05,53.66,52.5,32.85.37,65.71.07,98.57.07s65.71.3,98.56-.07c38.35-.45,53.44-15,53.64-52.52q.51-100,0-199.94C311.63,16.34,295.38.39,258.18.22ZM118.39,197.82a13.68,13.68,0,0,1-7.34,2.14,13.53,13.53,0,0,1-5.74-1.26L35.14,166.06a13.68,13.68,0,0,1-7.89-12.36v-1a13.68,13.68,0,0,1,7.88-12.36l70.17-32.63a13.64,13.64,0,0,1,19.39,12.37v.35a13.7,13.7,0,0,1-7.89,12.37L72.91,153.21,116.8,173.6A13.69,13.69,0,0,1,124.69,186v.36A13.59,13.59,0,0,1,118.39,197.82Zm31.27,30.83a13.59,13.59,0,0,1-13,9.47h-.35a13.64,13.64,0,0,1-13-17.79L169.56,77.1a13.62,13.62,0,0,1,13-9.48h.35a13.64,13.64,0,0,1,13,17.81ZM292,153.7a13.69,13.69,0,0,1-7.88,12.36l-70.17,32.63a13.64,13.64,0,0,1-19.39-12.37V186a13.69,13.69,0,0,1,7.89-12.37l43.89-20.39-43.89-20.39a13.69,13.69,0,0,1-7.89-12.37v-.36a13.66,13.66,0,0,1,19.39-12.36l70.16,32.62A13.68,13.68,0,0,1,292,152.72Z"/><path d="M270.16,401.23c-40.85-16-83.22-21.29-126.63-22.72-41.51-1.37-41.21-2-42.23,39.07-.21,8.54,5.19,22.79-6.46,24.41-21.14,2.93-43,2-64.47.69-10.51-.63-7.47-11.37-7.62-18.26-.43-18.78-.1-37.57-.25-56.35-.06-7.79-.85-16.23-11.21-15.91-9.84.31-11.14,8.5-11.18,16.35C0,392.93.07,417.35.05,441.77S-.06,490.61.07,515c0,8.27-1.58,17.69,12,17.17,11.54-.45,10.26-8.47,10.48-15.86.14-4.69.61-9.47-.05-14.07-2.81-19.44,4.72-25.87,24.73-25.49,62.91,1.21,125.85.45,188.79.45,41.75,0,41.89,0,46,40.21.8,7.87.52,15,11.7,14.79,11.45-.2,10.87-7.88,10.9-15.44.08-21.6-1.11-43.28.34-64.78C306.76,425.12,294,410.55,270.16,401.23Z"/><path d="M30,405.31c0,19.08,12,30.82,32.28,32.14,20.12-1.49,32.11-13.2,32-32.32-.15-18.94-11.4-31.65-32.22-31.61S30.05,386.41,30,405.31Z"/><path d="M78.59,338c-.8-9.59-6.82-15-17.92-15.12-8.91.65-14.76,6.17-15.15,15.84-.45,11.09,5.72,18,16.92,17.8S79.52,349,78.59,338Z"/></g></g></svg>